<svg width="38" height="37" viewBox="0 0 38 37" fill="none" xmlns="http://www.w3.org/2000/svg">
<path fill-rule="evenodd" clip-rule="evenodd" d="M18.9557 0.5C8.76425 0.5 0.5 8.7627 0.5 18.9557C0.5 27.11 5.78813 34.028 13.1212 36.4683C14.0435 36.639 14.3821 36.068 14.3821 35.5805C14.3821 35.1403 14.365 33.6865 14.3571 32.1445C9.22268 33.2607 8.13925 29.9667 8.13925 29.9667C7.29972 27.8337 6.09008 27.2665 6.09008 27.2665C4.4156 26.121 6.2163 26.1445 6.2163 26.1445C8.06957 26.2743 9.0454 28.0467 9.0454 28.0467C10.6915 30.8677 13.3629 30.052 14.416 29.5805C14.5817 28.3877 15.06 27.5732 15.5878 27.1127C11.4885 26.646 7.1793 25.0635 7.1793 17.9918C7.1793 15.9769 7.90025 14.3305 9.08085 13.038C8.88925 12.5729 8.25753 10.696 9.25965 8.15392C9.25965 8.15392 10.8095 7.6579 14.3363 10.0457C15.8084 9.63678 17.3873 9.4317 18.9557 9.42467C20.5241 9.4317 22.1042 9.63678 23.5791 10.0457C27.1017 7.6579 28.6493 8.15392 28.6493 8.15392C29.654 10.696 29.022 12.5729 28.8302 13.038C30.0135 14.3305 30.7297 15.9769 30.7297 17.9918C30.7297 25.0803 26.4123 26.641 22.3025 27.098C22.9645 27.6707 23.5543 28.794 23.5543 30.5158C23.5543 32.9853 23.533 34.9725 23.533 35.5805C23.533 36.0715 23.8652 36.647 24.8007 36.4658C32.1297 34.0228 37.411 27.1073 37.411 18.9557C37.411 8.7627 29.148 0.5 18.9557 0.5Z" fill="#1B1817"/>
<path d="M7.49013 26.9982C7.44948 27.0902 7.30523 27.1175 7.17381 27.0545C7.03996 26.9945 6.96476 26.8695 7.00816 26.7775C7.04788 26.6832 7.19246 26.657 7.32601 26.7197C7.46018 26.7802 7.53658 26.9065 7.49013 26.9982Z" fill="#1B1817"/>
<path d="M8.23765 27.832C8.14965 27.9137 7.97758 27.8757 7.86083 27.7467C7.74013 27.6182 7.7175 27.446 7.80675 27.3632C7.8975 27.282 8.06438 27.3202 8.1854 27.4485C8.30613 27.5787 8.32965 27.7495 8.23765 27.832Z" fill="#1B1817"/>
<path d="M8.96529 28.8949C8.85222 28.9734 8.66732 28.8999 8.55302 28.7356C8.43992 28.5716 8.43994 28.3746 8.55547 28.2959C8.67007 28.2171 8.85222 28.2881 8.96804 28.4509C9.08082 28.6176 9.08082 28.8146 8.96529 28.8949Z" fill="#1B1817"/>
<path d="M9.96224 29.9221C9.86109 30.0336 9.64562 30.0036 9.48792 29.8514C9.32657 29.7026 9.28164 29.4914 9.38309 29.3799C9.48547 29.2681 9.70217 29.2996 9.86109 29.4504C10.0212 29.5991 10.0701 29.8116 9.96224 29.9221Z" fill="#1B1817"/>
<path d="M11.3375 30.5182C11.2929 30.6627 11.0853 30.7284 10.8763 30.6669C10.6676 30.6037 10.5309 30.4344 10.5731 30.2882C10.6165 30.1427 10.825 30.0744 11.0355 30.1399C11.244 30.2029 11.3809 30.3712 11.3375 30.5182Z" fill="#1B1817"/>
<path d="M12.8479 30.6287C12.8531 30.781 12.6759 30.9072 12.4564 30.91C12.2358 30.9147 12.0573 30.7917 12.0549 30.642C12.0549 30.4882 12.2281 30.3632 12.4488 30.3595C12.6682 30.3552 12.8479 30.4775 12.8479 30.6287Z" fill="#1B1817"/>
<path d="M14.2534 30.3895C14.2797 30.538 14.1272 30.6905 13.9093 30.7312C13.695 30.7702 13.4967 30.6787 13.4695 30.5312C13.4429 30.379 13.5982 30.2265 13.8121 30.1872C14.0303 30.1492 14.2256 30.2385 14.2534 30.3895Z" fill="#1B1817"/>
</svg>
