<svg width="37" height="37" viewBox="0 0 37 37" fill="none" xmlns="http://www.w3.org/2000/svg">
<g clip-path="url(#clip0_150_45)">
<path d="M36.75 8.68539V29.5489C36.75 30.9049 35.652 32.0029 34.296 32.0029H28.5675V18.0949L18.75 25.4599L8.9325 18.0949V32.0044H3.204C2.88161 32.0044 2.56238 31.9409 2.26455 31.8174C1.96672 31.694 1.69612 31.5131 1.46823 31.2851C1.24034 31.0571 1.05961 30.7864 0.936369 30.4885C0.813133 30.1905 0.749803 29.8713 0.75 29.5489V8.68539C0.75 5.65089 4.2135 3.91839 6.6405 5.73939L8.9325 7.45989L18.75 14.8219L28.5675 7.45689L30.8595 5.73939C33.285 3.91989 36.75 5.65089 36.75 8.68539Z" fill="#EA4335"/>
</g>
<defs>
<clipPath id="clip0_150_45">
<rect width="36" height="36" fill="white" transform="translate(0.75 0.5)"/>
</clipPath>
</defs>
</svg>
