<svg width="37" height="37" viewBox="0 0 37 37" fill="none" xmlns="http://www.w3.org/2000/svg">
<path d="M18.7658 9.32825C18.4492 9.32825 18.1361 9.3444 17.8276 9.376C17.5191 9.4076 17.2148 9.45443 16.9158 9.51588C16.6167 9.57735 16.323 9.65348 16.0351 9.74333L15.1902 10.0536L14.3858 10.442L13.6267 10.9039L12.9174 11.4344L12.2629 12.0289L11.6678 12.6829L11.1367 13.3913L10.6742 14.1497L10.2856 14.9532C10.1687 15.2281 10.0648 15.5098 9.97487 15.7975C9.88492 16.0851 9.8088 16.3787 9.7472 16.6774C9.68562 16.9761 9.6388 17.28 9.60707 17.5883C9.57537 17.8966 9.55945 18.2094 9.55945 18.5256C9.55945 18.8418 9.5756 19.1546 9.60707 19.4629C9.6384 19.7687 9.68515 20.0728 9.7472 20.3738C9.8088 20.6737 9.88492 20.9662 9.97487 21.2538C10.0648 21.5415 10.1686 21.8231 10.2856 22.098L10.6742 22.9016L11.1367 23.6598L11.6678 24.3684L12.2629 25.0224L12.9174 25.617L13.6267 26.1474L14.3858 26.6092L15.1902 26.9977L16.0351 27.308L16.9158 27.5354C17.2171 27.5975 17.5215 27.6442 17.8276 27.6755C18.1393 27.7072 18.4524 27.7232 18.7658 27.7229C19.0823 27.7229 19.3955 27.707 19.7039 27.6755C20.01 27.6442 20.3143 27.5975 20.6157 27.5354L21.4964 27.308L22.3413 26.9977L23.1457 26.6092L23.9049 26.1474L24.6141 25.617L25.2688 25.0224L25.864 24.3684L26.395 23.6598L26.8575 22.9016L27.2462 22.098L27.5567 21.2538C27.6467 20.9662 27.723 20.6726 27.7845 20.3738L27.9245 19.4627C27.9562 19.1545 27.9722 18.8417 27.9722 18.5254C27.9722 18.2092 27.9562 17.8965 27.9245 17.5882C27.8932 17.2824 27.8465 16.9784 27.7845 16.6773C27.723 16.3774 27.6467 16.0851 27.5567 15.7973L27.2462 14.9531L26.8575 14.1496L26.395 13.3912L25.864 12.6827L25.2688 12.0288L24.6141 11.4343L23.9049 10.9038L23.1457 10.4419L22.3413 10.0535L21.4964 9.7432L20.6157 9.51578L19.7039 9.37588C19.3922 9.34405 19.0791 9.32823 18.7658 9.32825ZM18.7658 12.5028C18.9751 12.5028 19.1816 12.5132 19.3851 12.5337L19.9848 12.6245L20.5641 12.7721L21.1188 12.9736L21.6462 13.2262L22.1422 13.5266L22.6058 13.8723L23.0332 14.26L23.4213 14.6869L23.7673 15.1501L24.0681 15.6467L24.3206 16.1738C24.3965 16.3542 24.4639 16.539 24.5225 16.7281C24.581 16.9171 24.6303 17.1103 24.6701 17.307C24.7099 17.5038 24.7393 17.704 24.7608 17.9073L24.7918 18.5261C24.7918 18.7352 24.7814 18.9417 24.7608 19.1451C24.7403 19.3486 24.7101 19.5488 24.6701 19.7454C24.6301 19.9421 24.5807 20.1352 24.5225 20.3244L24.3206 20.8787L24.0681 21.4057L23.7673 21.9022L23.4213 22.3655L23.0332 22.7924L22.6058 23.1802L22.1422 23.5258L21.6462 23.8263L21.1188 24.0788L20.5641 24.2803L19.9848 24.4279L19.3851 24.5186C19.1793 24.5392 18.9725 24.5495 18.7657 24.5495C18.5587 24.5495 18.352 24.5392 18.1461 24.5186L17.5464 24.4279C17.3495 24.388 17.1562 24.3387 16.967 24.2803L16.4122 24.0788L15.8848 23.8263L15.3889 23.5258L14.9253 23.1802L14.4979 22.7924L14.1098 22.3655L13.7638 21.9022L13.463 21.4057L13.2104 20.8787L13.0086 20.3244L12.861 19.7454L12.7702 19.1451C12.7496 18.9395 12.7393 18.7329 12.7393 18.5261C12.7393 18.3195 12.7496 18.1129 12.7702 17.9073C12.7906 17.704 12.821 17.5036 12.861 17.307C12.9006 17.1117 12.9499 16.9185 13.0087 16.7282L13.2106 16.1739L13.4631 15.6468L13.7639 15.1502L14.1099 14.6871L14.498 14.2601L14.9254 13.8724L15.389 13.5267L15.8849 13.2263L16.4123 12.9737C16.5939 12.8975 16.7791 12.8302 16.9672 12.7722L17.5466 12.6246C17.7435 12.5847 17.9439 12.5543 18.1463 12.5339C18.3522 12.5132 18.5589 12.5028 18.7658 12.5028Z" fill="url(#paint0_radial_150_41)"/>
<path d="M28.3455 6.71191C28.2725 6.71191 28.1995 6.71561 28.1268 6.72299C28.054 6.73034 27.9818 6.74134 27.91 6.75596C27.8385 6.77059 27.7675 6.78879 27.6978 6.81051C27.6278 6.83226 27.5593 6.85751 27.4918 6.88616C27.4245 6.91486 27.3588 6.94694 27.2945 6.98224C27.2303 7.01749 27.168 7.05594 27.1078 7.09746C27.0473 7.13901 26.989 7.18359 26.9333 7.23101C26.8773 7.27839 26.8238 7.32854 26.7728 7.38129C26.722 7.43406 26.6738 7.48939 26.6283 7.54701C26.5828 7.60466 26.5403 7.66454 26.5008 7.72646C26.4613 7.78834 26.425 7.85216 26.3918 7.91769C26.3588 7.98326 26.3288 8.05046 26.3023 8.11906C26.2758 8.18761 26.2528 8.25749 26.233 8.32836C26.2135 8.39926 26.1975 8.47109 26.1853 8.54359C26.1728 8.61606 26.164 8.68911 26.1588 8.76249C26.155 8.81444 26.1533 8.86654 26.1533 8.91864C26.1533 8.99224 26.1568 9.06579 26.1643 9.13904C26.1715 9.21224 26.1825 9.28501 26.197 9.35711C26.2115 9.42921 26.2295 9.50054 26.251 9.57081C26.2728 9.64111 26.2978 9.71029 26.3263 9.77806C26.3548 9.84586 26.3865 9.91219 26.4218 9.97679C26.4568 10.0414 26.495 10.1041 26.5363 10.1649C26.5775 10.2256 26.6218 10.2842 26.6688 10.3404C26.716 10.3967 26.7658 10.4506 26.8183 10.5019C26.8708 10.5531 26.9255 10.6017 26.983 10.6474C27.0403 10.6932 27.0998 10.736 27.1613 10.7758C27.2228 10.8156 27.2863 10.8522 27.3513 10.8856C27.4165 10.919 27.4833 10.9491 27.5513 10.9758C27.6195 11.0024 27.6888 11.0256 27.7593 11.0453C27.8298 11.065 27.901 11.0811 27.973 11.0935C28.045 11.106 28.1178 11.1149 28.1905 11.1202C28.2423 11.1239 28.294 11.1257 28.3458 11.1257C28.4188 11.1257 28.492 11.1221 28.5648 11.1147C28.6373 11.1074 28.7098 11.0964 28.7813 11.0818C28.853 11.0672 28.9238 11.0489 28.9938 11.0272C29.0635 11.0055 29.1323 10.9802 29.1995 10.9516C29.2668 10.9229 29.3328 10.8909 29.3968 10.8556C29.461 10.8203 29.5233 10.7818 29.5838 10.7403C29.644 10.6987 29.7023 10.6542 29.7583 10.6068C29.814 10.5594 29.8675 10.5092 29.9185 10.4564C29.9695 10.4037 30.0178 10.3483 30.063 10.2907C30.1085 10.2331 30.151 10.1732 30.1905 10.1113C30.23 10.0494 30.2665 9.98549 30.2995 9.91994C30.3328 9.85434 30.3628 9.78714 30.3893 9.71856C30.4158 9.64999 30.4388 9.58014 30.4583 9.50924C30.4778 9.43836 30.4938 9.36654 30.5063 9.29404C30.5188 9.22156 30.5275 9.14849 30.5325 9.07514C30.5363 9.02316 30.5383 8.97109 30.5383 8.91899C30.5383 8.84541 30.5345 8.77189 30.5273 8.69869C30.52 8.62549 30.509 8.55271 30.4945 8.48061C30.48 8.40851 30.4618 8.33719 30.4403 8.26691C30.4185 8.19661 30.3935 8.12744 30.365 8.05966C30.3365 7.99186 30.3048 7.92554 30.2698 7.86094C30.2348 7.79636 30.1965 7.73359 30.1553 7.67284C30.1138 7.61209 30.0695 7.55349 30.0225 7.49719C29.9753 7.44091 29.9255 7.38701 29.8733 7.33574C29.8208 7.28449 29.7658 7.23591 29.7085 7.19019C29.6513 7.14446 29.5918 7.10166 29.5303 7.06194C29.4688 7.02216 29.4053 6.98551 29.34 6.95214C29.2748 6.91874 29.208 6.88864 29.14 6.86196C29.072 6.83529 29.0025 6.81209 28.932 6.79241C28.8618 6.77271 28.7903 6.75659 28.7183 6.74409C28.6463 6.73161 28.5738 6.72274 28.5008 6.71756C28.449 6.71386 28.3973 6.71191 28.3455 6.71191Z" fill="url(#paint1_radial_150_41)"/>
<path d="M17.02 0.532562C16.0187 0.530947 15.1251 0.535099 14.3224 0.546401L12.1704 0.604066C11.5328 0.631745 10.9696 0.667841 10.464 0.714549C10.2112 0.737846 9.97268 0.76391 9.74662 0.792628C9.5315 0.81974 9.317 0.85131 9.1032 0.887315C8.89962 0.921915 8.70645 0.95928 8.52122 0.999875C8.33602 1.04047 8.1591 1.0843 7.9884 1.13135C7.82155 1.17737 7.65597 1.22798 7.49192 1.28313C7.33115 1.33733 7.1743 1.39477 7.0194 1.45612C6.70963 1.57884 6.40747 1.71654 6.0963 1.87085C5.85687 1.98964 5.63567 2.10993 5.42555 2.23725C5.21543 2.36458 5.01635 2.49905 4.82145 2.64552C4.62073 2.79709 4.42725 2.95804 4.2417 3.12784C4.0477 3.30452 3.84957 3.49884 3.6437 3.71602C3.38502 3.98739 3.16024 4.24042 2.96072 4.48872C2.86096 4.61282 2.76754 4.73554 2.67955 4.85894C2.59252 4.98054 2.50933 5.10487 2.43008 5.23167C2.35166 5.35739 2.27739 5.48541 2.20634 5.61712C2.13419 5.75109 2.066 5.88717 2.00187 6.02514C1.87062 6.30702 1.74814 6.61057 1.62589 6.94942C1.5352 7.19989 1.45399 7.45374 1.38243 7.71034C1.30942 7.97262 1.2445 8.24699 1.1866 8.54372C1.1287 8.84047 1.07819 9.15959 1.03378 9.51249C0.985938 9.89934 0.947714 10.2873 0.919148 10.6761C0.886856 11.1035 0.860099 11.5738 0.838187 12.0973L0.786288 13.8378L0.758378 15.9596L0.750305 18.5241L0.773948 22.2536L0.847759 25.0791L0.904617 26.1828L0.97566 27.0975C0.998434 27.344 1.02693 27.5898 1.06112 27.835C1.09226 28.0528 1.12571 28.2433 1.16169 28.4083C1.2347 28.7435 1.32104 29.0758 1.42049 29.4043C1.51571 29.7188 1.62461 30.0288 1.74687 30.3338C1.86704 30.6325 1.99852 30.9205 2.14153 31.1978C2.28454 31.475 2.43908 31.7415 2.60516 31.9975C2.77123 32.2533 2.94884 32.4988 3.13844 32.7338C3.32783 32.9688 3.52928 33.1935 3.74198 33.4078C3.95498 33.6223 4.17965 33.8263 4.41642 34.0203C4.65597 34.2165 4.90503 34.401 5.1626 34.5728C5.40168 34.7325 5.63823 34.879 5.8765 35.0133C6.11475 35.1478 6.3551 35.2695 6.60215 35.3805C6.84917 35.4913 7.10245 35.591 7.36702 35.6808C7.63158 35.7705 7.90723 35.8503 8.19855 35.921C8.48988 35.992 8.79825 36.054 9.12465 36.1083C9.45103 36.1625 9.7999 36.209 10.1727 36.249C10.5454 36.289 10.943 36.322 11.3703 36.3498C11.7977 36.3775 12.2544 36.3995 12.7451 36.4173C13.5031 36.4448 14.6507 36.4608 15.974 36.467L20.2579 36.4583L24.3145 36.4015L25.857 36.358L26.8617 36.3065C27.0775 36.2888 27.2885 36.268 27.4923 36.2438C27.696 36.2195 27.8968 36.1918 28.0925 36.16C28.288 36.1285 28.4792 36.0933 28.667 36.054C28.8527 36.0153 29.0375 35.972 29.221 35.9245C29.4028 35.8783 29.582 35.8258 29.7595 35.77C29.9368 35.7145 30.1125 35.6543 30.287 35.5895C30.4625 35.5245 30.6362 35.4553 30.8085 35.382C30.9818 35.308 31.1548 35.2293 31.3285 35.1455C31.5953 35.017 31.81 34.9098 31.9985 34.8053C32.176 34.708 32.3468 34.5993 32.51 34.4795C32.671 34.361 32.831 34.226 33.0155 34.056C33.2 33.886 33.4092 33.6813 33.668 33.4223C33.8957 33.1948 34.0875 32.997 34.253 32.8173C34.4185 32.6375 34.558 32.4758 34.6802 32.3198C34.7967 32.1718 34.9053 32.0178 35.0055 31.8583C35.1033 31.7025 35.1933 31.5408 35.2848 31.3615C35.4228 31.0918 35.5455 30.8418 35.6553 30.6005C35.762 30.3683 35.8595 30.1315 35.9475 29.8915C36.0342 29.6533 36.1095 29.411 36.1727 29.1655C36.2377 28.913 36.2938 28.6463 36.3423 28.3538C36.3905 28.0613 36.4315 27.743 36.467 27.3875C36.5025 27.0323 36.5327 26.6393 36.5592 26.198L36.6297 24.7163L36.69 22.8737L36.7332 20.8208L36.7497 18.6743L36.7113 14.4584L36.6598 12.5701L36.5895 10.9488L36.5018 9.68479C36.47 9.33304 36.4355 9.05602 36.3993 8.86872C36.3587 8.66177 36.3138 8.45579 36.264 8.25089C36.2155 8.05154 36.1623 7.85339 36.1043 7.65662C36.0478 7.46489 35.9862 7.27464 35.92 7.08607C35.8545 6.89982 35.785 6.71747 35.7122 6.53907C35.6398 6.36064 35.561 6.18639 35.4793 6.01582C35.3973 5.84524 35.3115 5.67881 35.2215 5.51619C35.1313 5.35359 35.0375 5.19502 34.9393 5.04034C34.8413 4.88569 34.739 4.73494 34.6325 4.58824C34.5267 4.44202 34.4162 4.29914 34.3015 4.15979C34.1872 4.02124 34.0687 3.88632 33.946 3.75522C33.8235 3.62432 33.6968 3.49732 33.5662 3.37442C33.4355 3.25147 33.301 3.13244 33.1623 3.01734C33.0228 2.90187 32.88 2.79075 32.7335 2.68416C32.5857 2.57647 32.4347 2.47332 32.2805 2.37484C32.1243 2.27496 31.9653 2.17973 31.8032 2.08928C31.6388 1.99732 31.4713 1.91009 31.3018 1.82772C31.02 1.69082 30.7595 1.56938 30.504 1.46166C30.2525 1.35476 29.9963 1.25981 29.736 1.17714C29.4743 1.09468 29.2017 1.02398 28.902 0.962973C28.602 0.901963 28.275 0.851103 27.905 0.807853C27.535 0.764605 27.1217 0.729661 26.649 0.700598C26.1765 0.671534 25.6448 0.648697 25.0379 0.630245L22.9751 0.584113L20.3643 0.55332L17.0212 0.532791L17.02 0.532562ZM18.7563 3.70437L23.5774 3.73182L25.3962 3.76687C25.897 3.78094 26.2792 3.79744 26.5033 3.81647C26.7952 3.84104 27.073 3.87182 27.339 3.90874C27.594 3.94397 27.848 3.98777 28.1 4.04009C28.3423 4.09084 28.5732 4.14849 28.7945 4.21354C29.0155 4.27859 29.2268 4.35149 29.4293 4.43209C29.632 4.51272 29.8258 4.60139 30.0123 4.69852C30.1973 4.79489 30.377 4.90094 30.5508 5.01624C30.7238 5.13099 30.8905 5.25464 31.0525 5.38784C31.2143 5.52104 31.3713 5.66382 31.5245 5.81652C31.6865 5.97764 31.8357 6.14174 31.9732 6.31104C32.1102 6.47932 32.2373 6.65567 32.353 6.83914C32.4703 7.02524 32.5758 7.21842 32.6693 7.41752C32.7648 7.62052 32.8505 7.83502 32.9275 8.06302C33.0048 8.29104 33.0732 8.53334 33.134 8.79226C33.1978 9.06676 33.251 9.34357 33.294 9.62207C33.34 9.91732 33.3795 10.2322 33.413 10.5693C33.4462 10.9064 33.474 11.2659 33.4967 11.6505C33.515 11.959 33.531 12.3661 33.5445 12.8469L33.5783 14.4863L33.604 18.5021L33.5747 22.5141L33.5395 24.1488L33.4907 25.3377C33.4572 25.8945 33.4217 26.3625 33.3792 26.7698C33.358 26.9735 33.3348 27.162 33.3092 27.3388C33.2853 27.5058 33.2567 27.672 33.224 27.8375C33.194 27.9885 33.1592 28.1385 33.1195 28.2875C33.0817 28.4293 33.039 28.57 32.9917 28.7093C32.944 28.849 32.8923 28.9873 32.8363 29.1238C32.777 29.2683 32.7145 29.411 32.6488 29.5525C32.5903 29.6788 32.5288 29.8018 32.4638 29.9213C32.3995 30.0398 32.331 30.1558 32.259 30.2695C32.1875 30.3823 32.1125 30.4918 32.034 30.5978C31.956 30.7033 31.8743 30.806 31.7887 30.9058C31.7038 31.0053 31.615 31.1013 31.5228 31.1943C31.4305 31.287 31.3348 31.3765 31.2355 31.463C31.1365 31.5495 31.0335 31.6328 30.927 31.7128C30.8207 31.7928 30.7105 31.8695 30.5968 31.943C30.4827 32.0168 30.3655 32.0873 30.2442 32.1548C30.123 32.222 29.998 32.2863 29.8695 32.3475C29.7385 32.4098 29.606 32.468 29.4715 32.5223C29.3328 32.5783 29.1925 32.6303 29.0508 32.6785C28.7623 32.7768 28.4583 32.863 28.138 32.9373C27.8045 33.0145 27.4678 33.0775 27.1287 33.1263C26.9982 33.1453 26.6988 33.1633 26.2698 33.1798L24.6349 33.2253L19.9998 33.2855L15.1483 33.293L13.2431 33.2728L12.0059 33.2343L11.0937 33.17C10.8104 33.1463 10.547 33.1198 10.3002 33.0895C10.0534 33.0595 9.82355 33.026 9.6073 32.988C9.40238 32.9528 9.1987 32.9103 8.99662 32.8613C8.81238 32.8165 8.63 32.7643 8.44998 32.7048C8.2764 32.647 8.11042 32.5835 7.94898 32.5138C7.7875 32.444 7.63065 32.3675 7.4753 32.284C7.31995 32.2005 7.16622 32.11 7.01075 32.011C6.89347 31.9365 6.7801 31.861 6.671 31.7813C6.5619 31.7013 6.45648 31.6215 6.355 31.538C6.2535 31.4545 6.15605 31.3685 6.06205 31.28C5.96867 31.1918 5.87853 31.1003 5.79173 31.0058C5.70522 30.9113 5.62253 30.8143 5.54318 30.7138C5.46353 30.6128 5.38763 30.5088 5.31565 30.4023C5.24258 30.294 5.17345 30.1833 5.1084 30.0703C5.04265 29.956 4.98015 29.838 4.92075 29.716C4.86035 29.592 4.804 29.466 4.7518 29.3383C4.69875 29.208 4.64845 29.0738 4.60118 28.9353C4.5066 28.6578 4.42358 28.3625 4.35138 28.0478C4.27918 27.733 4.21758 27.3985 4.16545 27.042C4.11333 26.6858 4.07135 26.3078 4.0379 25.9063C4.01323 25.6105 3.99363 25.1497 3.97863 24.5685L3.94725 22.5012L3.95878 17.2312L4.04955 12.1954L4.11875 10.4212L4.15795 9.83471C4.17157 9.67811 4.18565 9.56209 4.20005 9.49242C4.24758 9.26327 4.29542 9.05002 4.3449 8.85039C4.39112 8.66204 4.44255 8.47504 4.4991 8.28954C4.55285 8.11447 4.60948 7.95047 4.67003 7.79512C4.7284 7.64462 4.79347 7.49682 4.86505 7.35214C4.93493 7.21144 5.01003 7.07672 5.09155 6.94559C5.1731 6.81447 5.2611 6.68727 5.35705 6.56074C5.453 6.43422 5.55632 6.30932 5.66878 6.18269C5.78123 6.05607 5.90268 5.92817 6.03438 5.79634C6.18788 5.64197 6.3477 5.49402 6.51345 5.35289C6.66998 5.21974 6.83318 5.09467 7.00245 4.97819C7.16888 4.86284 7.33958 4.76022 7.5173 4.66587C7.69502 4.57154 7.87978 4.48629 8.0741 4.40962C8.26842 4.33292 8.47257 4.26429 8.6888 4.20202C8.916 4.13829 9.1457 4.08392 9.37733 4.03904C9.6209 3.99132 9.8796 3.94967 10.1558 3.91334C10.432 3.87702 10.7259 3.84564 11.04 3.81842C11.2592 3.79952 11.6368 3.78267 12.134 3.76849L13.9435 3.73274L18.7571 3.70332L18.7563 3.70437Z" fill="url(#paint2_radial_150_41)"/>
<defs>
<radialGradient id="paint0_radial_150_41" cx="0" cy="0" r="1" gradientUnits="userSpaceOnUse" gradientTransform="translate(6.48555 39.0865) rotate(-9.53101) scale(76.0845 46.1828)">
<stop stop-color="#FED576"/>
<stop offset="0.263" stop-color="#F47133"/>
<stop offset="0.609" stop-color="#BC3081"/>
<stop offset="1" stop-color="#4C63D2"/>
</radialGradient>
<radialGradient id="paint1_radial_150_41" cx="0" cy="0" r="1" gradientUnits="userSpaceOnUse" gradientTransform="translate(6.48566 39.0865) rotate(-9.53102) scale(76.0845 46.1827)">
<stop stop-color="#FED576"/>
<stop offset="0.263" stop-color="#F47133"/>
<stop offset="0.609" stop-color="#BC3081"/>
<stop offset="1" stop-color="#4C63D2"/>
</radialGradient>
<radialGradient id="paint2_radial_150_41" cx="0" cy="0" r="1" gradientUnits="userSpaceOnUse" gradientTransform="translate(6.48565 39.0865) rotate(-9.53101) scale(76.0845 46.1827)">
<stop stop-color="#FED576"/>
<stop offset="0.263" stop-color="#F47133"/>
<stop offset="0.609" stop-color="#BC3081"/>
<stop offset="1" stop-color="#4C63D2"/>
</radialGradient>
</defs>
</svg>
