<svg width="43" height="37" viewBox="0 0 43 37" fill="none" xmlns="http://www.w3.org/2000/svg">
<mask id="mask0_150_33" style="mask-type:luminance" maskUnits="userSpaceOnUse" x="0" y="0" width="43" height="37">
<path d="M42.7262 0.5H0.5V36.5H42.7262V0.5Z" fill="white"/>
</mask>
<g mask="url(#mask0_150_33)">
<path d="M40.654 34.1759C40.7448 34.1769 40.8345 34.1592 40.918 34.1239C41.0015 34.0887 41.0768 34.0366 41.1393 33.9711C41.2018 33.9054 41.2503 33.8279 41.2815 33.7426C41.3128 33.6576 41.326 33.5672 41.3208 33.4767C41.3208 32.9807 41.0218 32.7437 40.4078 32.7437H39.4158V35.3404H39.789V34.2084H40.2473L40.2578 34.2224L40.9693 35.3404H41.3683L40.6028 34.1832L40.654 34.1759ZM40.2225 33.9159H39.79V33.0382H40.3383C40.6215 33.0382 40.9445 33.0844 40.9445 33.4552C40.9445 33.8817 40.6178 33.9159 40.2203 33.9159" fill="#0A66C2"/>
<path d="M30.922 30.9219H25.6315V22.637C25.6315 20.6613 25.5963 18.1181 22.8801 18.1181C20.1247 18.1181 19.7031 20.2706 19.7031 22.4931V30.9214H14.4127V13.8841H19.4914V16.2124H19.5625C20.0708 15.3434 20.8053 14.6285 21.6877 14.1439C22.5701 13.6592 23.5675 13.423 24.5735 13.4603C29.9355 13.4603 30.9243 16.9873 30.9243 21.5756L30.922 30.9219ZM8.44336 11.5552C7.83616 11.5554 7.24253 11.3754 6.73761 11.0381C6.23266 10.7009 5.83911 10.2215 5.60663 9.66054C5.37418 9.09959 5.31326 8.48231 5.43161 7.88676C5.54996 7.29121 5.84226 6.74411 6.27156 6.31469C6.70083 5.88524 7.24781 5.59276 7.84333 5.47419C8.43886 5.35561 9.05613 5.41631 9.61716 5.64856C10.1782 5.88084 10.6577 6.27424 10.9952 6.77906C11.3326 7.28386 11.5128 7.87741 11.5129 8.48461C11.513 8.88779 11.4336 9.28701 11.2794 9.65951C11.1252 10.032 10.8991 10.3705 10.6141 10.6556C10.3291 10.9408 9.99063 11.167 9.61816 11.3213C9.24571 11.4757 8.84653 11.5552 8.44336 11.5552ZM11.0885 30.9219H5.79266V13.8841H11.0885V30.9219ZM33.5595 0.502188H3.13423C2.44367 0.494395 1.77823 0.761084 1.28419 1.24365C0.790156 1.72622 0.50794 2.38518 0.499512 3.07574V33.6272C0.507651 34.3182 0.789701 34.9774 1.28372 35.4607C1.77774 35.9437 2.44333 36.2109 3.13423 36.2034H33.5595C34.2518 36.2122 34.9193 35.9457 35.4153 35.4627C35.911 34.9797 36.195 34.3194 36.2048 33.6272V3.07354C36.1948 2.38161 35.9105 1.72189 35.4148 1.23934C34.9188 0.756784 34.2515 0.490857 33.5595 0.499983" fill="#0A66C2"/>
<path d="M40.2677 31.5869C39.6242 31.5932 39.009 31.8539 38.5572 32.3124C38.1052 32.7709 37.8535 33.3897 37.8565 34.0334C37.8597 34.6769 38.1175 35.2932 38.5737 35.7472C39.03 36.2014 39.6475 36.4562 40.2912 36.4562C40.935 36.4562 41.5522 36.2014 42.0085 35.7472C42.4647 35.2932 42.7227 34.6769 42.7257 34.0334C42.729 33.3897 42.477 32.7709 42.0252 32.3124C41.5732 31.8539 40.9582 31.5932 40.3145 31.5869H40.2677ZM40.2677 36.1774C39.8455 36.1847 39.4307 36.0662 39.076 35.8374C38.721 35.6089 38.4417 35.2799 38.2737 34.8927C38.1057 34.5052 38.0562 34.0767 38.1317 33.6614C38.2072 33.2459 38.4042 32.8622 38.6977 32.5587C38.9912 32.2552 39.3682 32.0454 39.781 31.9562C40.1937 31.8669 40.6235 31.9022 41.0162 32.0572C41.409 32.2122 41.747 32.4804 41.9872 32.8274C42.2277 33.1747 42.3597 33.5852 42.3667 34.0074C42.3667 34.0194 42.3667 34.0312 42.3667 34.0432C42.3787 34.5969 42.17 35.1329 41.7867 35.5329C41.4037 35.9329 40.8772 36.1644 40.3235 36.1764H40.2682" fill="#0A66C2"/>
</g>
</svg>
